%TF.GenerationSoftware,KiCad,Pcbnew,7.0.3*%
%TF.CreationDate,2023-05-18T14:52:35-04:00*%
%TF.ProjectId,ai03-pcb-guide,61693033-2d70-4636-922d-67756964652e,rev?*%
%TF.SameCoordinates,Original*%
%TF.FileFunction,Copper,L1,Top*%
%TF.FilePolarity,Positive*%
%FSLAX46Y46*%
G04 Gerber Fmt 4.6, Leading zero omitted, Abs format (unit mm)*
G04 Created by KiCad (PCBNEW 7.0.3) date 2023-05-18 14:52:35*
%MOMM*%
%LPD*%
G01*
G04 APERTURE LIST*
G04 Aperture macros list*
%AMHorizOval*
0 Thick line with rounded ends*
0 $1 width*
0 $2 $3 position (X,Y) of the first rounded end (center of the circle)*
0 $4 $5 position (X,Y) of the second rounded end (center of the circle)*
0 Add line between two ends*
20,1,$1,$2,$3,$4,$5,0*
0 Add two circle primitives to create the rounded ends*
1,1,$1,$2,$3*
1,1,$1,$4,$5*%
G04 Aperture macros list end*
%TA.AperFunction,ComponentPad*%
%ADD10HorizOval,2.250000X0.655001X0.730000X-0.655001X-0.730000X0*%
%TD*%
%TA.AperFunction,ComponentPad*%
%ADD11C,2.250000*%
%TD*%
%TA.AperFunction,ComponentPad*%
%ADD12HorizOval,2.250000X0.020000X0.290000X-0.020000X-0.290000X0*%
%TD*%
%TA.AperFunction,ComponentPad*%
%ADD13O,1.700000X2.700000*%
%TD*%
%TA.AperFunction,ViaPad*%
%ADD14C,0.800000*%
%TD*%
%TA.AperFunction,Conductor*%
%ADD15C,0.381000*%
%TD*%
%TA.AperFunction,Conductor*%
%ADD16C,0.254000*%
%TD*%
G04 APERTURE END LIST*
D10*
%TO.P,MX1,1,COL*%
%TO.N,COL0*%
X85745001Y-58642500D03*
D11*
X86400000Y-57912500D03*
D12*
%TO.P,MX1,2,ROW*%
%TO.N,Net-(D1-A)*%
X91420000Y-57122500D03*
D11*
X91440000Y-56832500D03*
%TD*%
D10*
%TO.P,MX4,1,COL*%
%TO.N,COL1*%
X104795001Y-77692500D03*
D11*
X105450000Y-76962500D03*
D12*
%TO.P,MX4,2,ROW*%
%TO.N,Net-(D4-A)*%
X110470000Y-76172500D03*
D11*
X110490000Y-75882500D03*
%TD*%
D10*
%TO.P,MX3,1,COL*%
%TO.N,COL0*%
X85745001Y-77692500D03*
D11*
X86400000Y-76962500D03*
D12*
%TO.P,MX3,2,ROW*%
%TO.N,Net-(D3-A)*%
X91420000Y-76172500D03*
D11*
X91440000Y-75882500D03*
%TD*%
D10*
%TO.P,MX2,1,COL*%
%TO.N,COL1*%
X104795001Y-58642500D03*
D11*
X105450000Y-57912500D03*
D12*
%TO.P,MX2,2,ROW*%
%TO.N,Net-(D2-A)*%
X110470000Y-57122500D03*
D11*
X110490000Y-56832500D03*
%TD*%
D13*
%TO.P,USB1,6,SHIELD*%
%TO.N,unconnected-(USB1-SHIELD-Pad6)*%
X52068750Y-53975000D03*
X44768750Y-53975000D03*
X52068750Y-58475000D03*
X44768750Y-58475000D03*
%TD*%
D14*
%TO.N,Net-(U2-~{RESET})*%
X54768750Y-69850000D03*
%TO.N,+5V*%
X61912500Y-81756250D03*
X57150000Y-65881250D03*
X74612500Y-81756250D03*
X58737500Y-79375000D03*
X78581250Y-72231250D03*
X59531250Y-72231250D03*
%TO.N,Net-(U2-D-)*%
X53975000Y-76993750D03*
X52504339Y-75289411D03*
%TO.N,Net-(U2-~{RESET})*%
X50800000Y-84137500D03*
%TD*%
D15*
%TO.N,+5V*%
X58737500Y-79375000D02*
X58737500Y-80168750D01*
X58737500Y-80168750D02*
X58737500Y-80962500D01*
X58737500Y-72231250D02*
X58737500Y-80168750D01*
D16*
%TO.N,Net-(U2-~{RESET})*%
X54768750Y-69850000D02*
X50800000Y-73818750D01*
D15*
%TO.N,+5V*%
X58737500Y-80962500D02*
X59531250Y-81756250D01*
X62706250Y-81756250D02*
X77787500Y-81756250D01*
X78581250Y-80962500D02*
X77787500Y-81756250D01*
X78581250Y-72231250D02*
X78581250Y-80962500D01*
X59531250Y-81756250D02*
X61912500Y-81756250D01*
X59531250Y-72231250D02*
X58737500Y-72231250D01*
X57150000Y-65881250D02*
X57150000Y-70643750D01*
X61912500Y-81756250D02*
X62706250Y-81756250D01*
X57150000Y-70643750D02*
X58737500Y-72231250D01*
D16*
%TO.N,COL0*%
X85090000Y-59372500D02*
X85090000Y-78422500D01*
%TO.N,COL1*%
X104140000Y-59372500D02*
X104140000Y-78422500D01*
%TO.N,Net-(U2-D-)*%
X52504339Y-75289411D02*
X53975000Y-76760072D01*
X52504339Y-75289411D02*
X52387500Y-75406250D01*
X52387500Y-75406250D02*
X52530732Y-75406250D01*
X53975000Y-76760072D02*
X53975000Y-76993750D01*
%TO.N,Net-(U2-~{RESET})*%
X50800000Y-84137500D02*
X50800000Y-73818750D01*
%TD*%
M02*
