%TF.GenerationSoftware,KiCad,Pcbnew,7.0.3*%
%TF.CreationDate,2023-05-18T14:52:35-04:00*%
%TF.ProjectId,ai03-pcb-guide,61693033-2d70-4636-922d-67756964652e,rev?*%
%TF.SameCoordinates,Original*%
%TF.FileFunction,Soldermask,Bot*%
%TF.FilePolarity,Negative*%
%FSLAX46Y46*%
G04 Gerber Fmt 4.6, Leading zero omitted, Abs format (unit mm)*
G04 Created by KiCad (PCBNEW 7.0.3) date 2023-05-18 14:52:35*
%MOMM*%
%LPD*%
G01*
G04 APERTURE LIST*
G04 Aperture macros list*
%AMRoundRect*
0 Rectangle with rounded corners*
0 $1 Rounding radius*
0 $2 $3 $4 $5 $6 $7 $8 $9 X,Y pos of 4 corners*
0 Add a 4 corners polygon primitive as box body*
4,1,4,$2,$3,$4,$5,$6,$7,$8,$9,$2,$3,0*
0 Add four circle primitives for the rounded corners*
1,1,$1+$1,$2,$3*
1,1,$1+$1,$4,$5*
1,1,$1+$1,$6,$7*
1,1,$1+$1,$8,$9*
0 Add four rect primitives between the rounded corners*
20,1,$1+$1,$2,$3,$4,$5,0*
20,1,$1+$1,$4,$5,$6,$7,0*
20,1,$1+$1,$6,$7,$8,$9,0*
20,1,$1+$1,$8,$9,$2,$3,0*%
%AMHorizOval*
0 Thick line with rounded ends*
0 $1 width*
0 $2 $3 position (X,Y) of the first rounded end (center of the circle)*
0 $4 $5 position (X,Y) of the second rounded end (center of the circle)*
0 Add line between two ends*
20,1,$1,$2,$3,$4,$5,0*
0 Add two circle primitives to create the rounded ends*
1,1,$1,$2,$3*
1,1,$1,$4,$5*%
G04 Aperture macros list end*
%ADD10RoundRect,0.250000X0.337500X0.475000X-0.337500X0.475000X-0.337500X-0.475000X0.337500X-0.475000X0*%
%ADD11C,1.750000*%
%ADD12C,3.987800*%
%ADD13HorizOval,2.250000X0.655001X0.730000X-0.655001X-0.730000X0*%
%ADD14C,2.250000*%
%ADD15HorizOval,2.250000X0.020000X0.290000X-0.020000X-0.290000X0*%
%ADD16RoundRect,0.250000X0.800000X-0.450000X0.800000X0.450000X-0.800000X0.450000X-0.800000X-0.450000X0*%
%ADD17RoundRect,0.250000X0.475000X-0.337500X0.475000X0.337500X-0.475000X0.337500X-0.475000X-0.337500X0*%
%ADD18RoundRect,0.250000X-0.450000X0.350000X-0.450000X-0.350000X0.450000X-0.350000X0.450000X0.350000X0*%
%ADD19R,1.500000X0.550000*%
%ADD20R,0.550000X1.500000*%
%ADD21RoundRect,0.225000X0.375000X-0.225000X0.375000X0.225000X-0.375000X0.225000X-0.375000X-0.225000X0*%
%ADD22RoundRect,0.250001X-0.624999X0.462499X-0.624999X-0.462499X0.624999X-0.462499X0.624999X0.462499X0*%
%ADD23R,1.800000X1.100000*%
%ADD24RoundRect,0.250000X-0.475000X0.337500X-0.475000X-0.337500X0.475000X-0.337500X0.475000X0.337500X0*%
%ADD25R,2.100000X1.800000*%
%ADD26RoundRect,0.250000X-0.337500X-0.475000X0.337500X-0.475000X0.337500X0.475000X-0.337500X0.475000X0*%
%ADD27R,0.500000X2.250000*%
%ADD28O,1.700000X2.700000*%
G04 APERTURE END LIST*
D10*
%TO.C,C1*%
X59225000Y-73818750D03*
X57150000Y-73818750D03*
%TD*%
D11*
%TO.C,MX1*%
X83820000Y-61912500D03*
D12*
X88900000Y-61912500D03*
D11*
X93980000Y-61912500D03*
D13*
X85745001Y-58642500D03*
D14*
X86400000Y-57912500D03*
D15*
X91420000Y-57122500D03*
D14*
X91440000Y-56832500D03*
%TD*%
D11*
%TO.C,MX4*%
X102870000Y-80962500D03*
D12*
X107950000Y-80962500D03*
D11*
X113030000Y-80962500D03*
D13*
X104795001Y-77692500D03*
D14*
X105450000Y-76962500D03*
D15*
X110470000Y-76172500D03*
D14*
X110490000Y-75882500D03*
%TD*%
D11*
%TO.C,MX3*%
X83820000Y-80962500D03*
D12*
X88900000Y-80962500D03*
D11*
X93980000Y-80962500D03*
D13*
X85745001Y-77692500D03*
D14*
X86400000Y-76962500D03*
D15*
X91420000Y-76172500D03*
D14*
X91440000Y-75882500D03*
%TD*%
D11*
%TO.C,MX2*%
X102870000Y-61912500D03*
D12*
X107950000Y-61912500D03*
D11*
X113030000Y-61912500D03*
D13*
X104795001Y-58642500D03*
D14*
X105450000Y-57912500D03*
D15*
X110470000Y-57122500D03*
D14*
X110490000Y-56832500D03*
%TD*%
D16*
%TO.C,D1*%
X96837500Y-64112500D03*
X96837500Y-59712500D03*
%TD*%
D17*
%TO.C,C3*%
X59531250Y-66918750D03*
X59531250Y-64843750D03*
%TD*%
%TO.C,C2*%
X76993750Y-72475000D03*
X76993750Y-70400000D03*
%TD*%
D18*
%TO.C,R2*%
X46831250Y-63293750D03*
X46831250Y-65293750D03*
%TD*%
D19*
%TO.C,U2*%
X61768750Y-78612500D03*
X61768750Y-77812500D03*
X61768750Y-77012500D03*
X61768750Y-76212500D03*
X61768750Y-75412500D03*
X61768750Y-74612500D03*
X61768750Y-73812500D03*
X61768750Y-73012500D03*
X61768750Y-72212500D03*
X61768750Y-71412500D03*
X61768750Y-70612500D03*
D20*
X63468750Y-68912500D03*
X64268750Y-68912500D03*
X65068750Y-68912500D03*
X65868750Y-68912500D03*
X66668750Y-68912500D03*
X67468750Y-68912500D03*
X68268750Y-68912500D03*
X69068750Y-68912500D03*
X69868750Y-68912500D03*
X70668750Y-68912500D03*
X71468750Y-68912500D03*
D19*
X73168750Y-70612500D03*
X73168750Y-71412500D03*
X73168750Y-72212500D03*
X73168750Y-73012500D03*
X73168750Y-73812500D03*
X73168750Y-74612500D03*
X73168750Y-75412500D03*
X73168750Y-76212500D03*
X73168750Y-77012500D03*
X73168750Y-77812500D03*
X73168750Y-78612500D03*
D20*
X71468750Y-80312500D03*
X70668750Y-80312500D03*
X69868750Y-80312500D03*
X69068750Y-80312500D03*
X68268750Y-80312500D03*
X67468750Y-80312500D03*
X66668750Y-80312500D03*
X65868750Y-80312500D03*
X65068750Y-80312500D03*
X64268750Y-80312500D03*
X63468750Y-80312500D03*
%TD*%
D18*
%TO.C,R3*%
X49781250Y-63293750D03*
X49781250Y-65293750D03*
%TD*%
%TO.C,R1*%
X76200000Y-78375000D03*
X76200000Y-80375000D03*
%TD*%
D21*
%TO.C,D4*%
X115887500Y-82612500D03*
X115887500Y-79312500D03*
%TD*%
D22*
%TO.C,F1*%
X42068750Y-68362500D03*
X42068750Y-71337500D03*
%TD*%
D23*
%TO.C,SW1*%
X42937500Y-87575000D03*
X49137500Y-83875000D03*
X42937500Y-83875000D03*
X49137500Y-87575000D03*
%TD*%
D17*
%TO.C,C7*%
X61118750Y-61362500D03*
X61118750Y-59287500D03*
%TD*%
D21*
%TO.C,D2*%
X115887500Y-63562500D03*
X115887500Y-60262500D03*
%TD*%
D24*
%TO.C,C6*%
X71437500Y-59287500D03*
X71437500Y-61362500D03*
%TD*%
D21*
%TO.C,D3*%
X97631250Y-82612500D03*
X97631250Y-79312500D03*
%TD*%
D25*
%TO.C,Y1*%
X67331250Y-61475000D03*
X64431250Y-61475000D03*
X64431250Y-59175000D03*
X67331250Y-59175000D03*
%TD*%
D26*
%TO.C,C5*%
X63256250Y-83343750D03*
X65331250Y-83343750D03*
%TD*%
D18*
%TO.C,R4*%
X54768750Y-64881250D03*
X54768750Y-66881250D03*
%TD*%
D10*
%TO.C,C4*%
X73268750Y-83343750D03*
X71193750Y-83343750D03*
%TD*%
D27*
%TO.C,USB1*%
X50018750Y-58475000D03*
X49218750Y-58475000D03*
X48418750Y-58475000D03*
X47618750Y-58475000D03*
X46818750Y-58475000D03*
D28*
X52068750Y-53975000D03*
X44768750Y-53975000D03*
X52068750Y-58475000D03*
X44768750Y-58475000D03*
%TD*%
M02*
