M48
; DRILL file {KiCad 7.0.3} date Thu 18 May 2023 02:53:18 PM EDT
; FORMAT={-:-/ absolute / inch / decimal}
; #@! TF.CreationDate,2023-05-18T14:53:18-04:00
; #@! TF.GenerationSoftware,Kicad,Pcbnew,7.0.3
; #@! TF.FileFunction,Plated,1,2,PTH
FMAT,2
INCH
; #@! TA.AperFunction,Plated,PTH,ViaDrill
T1C0.0157
; #@! TA.AperFunction,Plated,PTH,ComponentDrill
T2C0.0276
; #@! TA.AperFunction,Plated,PTH,ComponentDrill
T3C0.0579
%
G90
G05
T1
X2.0Y-3.3125
X2.0671Y-2.9642
X2.125Y-3.0312
X2.1562Y-2.75
X2.25Y-2.5938
X2.3125Y-3.125
X2.3438Y-2.8438
X2.4375Y-3.2188
X2.9375Y-3.2188
X3.0938Y-2.8438
T3
X3.35Y-2.3375
X3.35Y-3.0875
X3.4016Y-2.28
X3.4016Y-3.03
X3.5984Y-2.2603
X3.5984Y-3.0103
X3.6Y-2.2375
X3.6Y-2.9875
X4.1Y-2.3375
X4.1Y-3.0875
X4.1516Y-2.28
X4.1516Y-3.03
X4.3484Y-2.2603
X4.3484Y-3.0103
X4.35Y-2.2375
X4.35Y-2.9875
T2
G00X1.7625Y-2.1014
M15
G01X1.7625Y-2.1486
M16
G05
G00X1.7625Y-2.2785
M15
G01X1.7625Y-2.3258
M16
G05
G00X2.05Y-2.1014
M15
G01X2.05Y-2.1486
M16
G05
G00X2.05Y-2.2785
M15
G01X2.05Y-2.3258
M16
G05
T0
M30
